<mxfile host="Electron" modified="2024-01-27T12:21:15.828Z" agent="Mozilla/5.0 (Windows NT 10.0; Win64; x64) AppleWebKit/537.36 (KHTML, like Gecko) draw.io/23.0.2 Chrome/120.0.6099.109 Electron/28.1.0 Safari/537.36" etag="m2lxiJPK73D3qdg0AK3i" version="23.0.2" type="device">
  <diagram name="Page-1" id="xgx46momcVr4SlDG-EnZ">
    <mxGraphModel dx="1820" dy="872" grid="0" gridSize="10" guides="1" tooltips="1" connect="1" arrows="1" fold="1" page="0" pageScale="1" pageWidth="850" pageHeight="1100" math="0" shadow="0">
      <root>
        <mxCell id="0" />
        <mxCell id="1" parent="0" />
        <mxCell id="362QzIRRDV4tzAWA7127-20" value="users" style="swimlane;fontStyle=0;childLayout=stackLayout;horizontal=1;startSize=26;fillColor=none;horizontalStack=0;resizeParent=1;resizeParentMax=0;resizeLast=0;collapsible=1;marginBottom=0;whiteSpace=wrap;html=1;fontSize=16;" vertex="1" parent="1">
          <mxGeometry x="-271" y="121" width="358" height="156" as="geometry" />
        </mxCell>
        <mxCell id="362QzIRRDV4tzAWA7127-21" value="+ id: int PK" style="text;strokeColor=none;fillColor=none;align=left;verticalAlign=top;spacingLeft=4;spacingRight=4;overflow=hidden;rotatable=0;points=[[0,0.5],[1,0.5]];portConstraint=eastwest;whiteSpace=wrap;html=1;fontSize=16;" vertex="1" parent="362QzIRRDV4tzAWA7127-20">
          <mxGeometry y="26" width="358" height="26" as="geometry" />
        </mxCell>
        <mxCell id="362QzIRRDV4tzAWA7127-22" value="+ username: varchar(255)" style="text;strokeColor=none;fillColor=none;align=left;verticalAlign=top;spacingLeft=4;spacingRight=4;overflow=hidden;rotatable=0;points=[[0,0.5],[1,0.5]];portConstraint=eastwest;whiteSpace=wrap;html=1;fontSize=16;" vertex="1" parent="362QzIRRDV4tzAWA7127-20">
          <mxGeometry y="52" width="358" height="26" as="geometry" />
        </mxCell>
        <mxCell id="362QzIRRDV4tzAWA7127-23" value="+ password: varchar(255)" style="text;strokeColor=none;fillColor=none;align=left;verticalAlign=top;spacingLeft=4;spacingRight=4;overflow=hidden;rotatable=0;points=[[0,0.5],[1,0.5]];portConstraint=eastwest;whiteSpace=wrap;html=1;fontSize=16;" vertex="1" parent="362QzIRRDV4tzAWA7127-20">
          <mxGeometry y="78" width="358" height="26" as="geometry" />
        </mxCell>
        <mxCell id="362QzIRRDV4tzAWA7127-29" value="+ created_at: date current_timestamp" style="text;strokeColor=none;fillColor=none;align=left;verticalAlign=top;spacingLeft=4;spacingRight=4;overflow=hidden;rotatable=0;points=[[0,0.5],[1,0.5]];portConstraint=eastwest;whiteSpace=wrap;html=1;fontSize=16;" vertex="1" parent="362QzIRRDV4tzAWA7127-20">
          <mxGeometry y="104" width="358" height="26" as="geometry" />
        </mxCell>
        <mxCell id="362QzIRRDV4tzAWA7127-31" value="+ updated_at: date current_timestamp" style="text;strokeColor=none;fillColor=none;align=left;verticalAlign=top;spacingLeft=4;spacingRight=4;overflow=hidden;rotatable=0;points=[[0,0.5],[1,0.5]];portConstraint=eastwest;whiteSpace=wrap;html=1;fontSize=16;" vertex="1" parent="362QzIRRDV4tzAWA7127-20">
          <mxGeometry y="130" width="358" height="26" as="geometry" />
        </mxCell>
        <mxCell id="362QzIRRDV4tzAWA7127-24" value="posts" style="swimlane;fontStyle=0;childLayout=stackLayout;horizontal=1;startSize=26;fillColor=none;horizontalStack=0;resizeParent=1;resizeParentMax=0;resizeLast=0;collapsible=1;marginBottom=0;whiteSpace=wrap;html=1;fontSize=16;" vertex="1" parent="1">
          <mxGeometry x="197" y="128" width="363" height="208" as="geometry" />
        </mxCell>
        <mxCell id="362QzIRRDV4tzAWA7127-25" value="+ id: int PK" style="text;strokeColor=none;fillColor=none;align=left;verticalAlign=top;spacingLeft=4;spacingRight=4;overflow=hidden;rotatable=0;points=[[0,0.5],[1,0.5]];portConstraint=eastwest;whiteSpace=wrap;html=1;fontSize=16;" vertex="1" parent="362QzIRRDV4tzAWA7127-24">
          <mxGeometry y="26" width="363" height="26" as="geometry" />
        </mxCell>
        <mxCell id="362QzIRRDV4tzAWA7127-28" value="+ user_id: int FK" style="text;strokeColor=none;fillColor=none;align=left;verticalAlign=top;spacingLeft=4;spacingRight=4;overflow=hidden;rotatable=0;points=[[0,0.5],[1,0.5]];portConstraint=eastwest;whiteSpace=wrap;html=1;fontSize=16;" vertex="1" parent="362QzIRRDV4tzAWA7127-24">
          <mxGeometry y="52" width="363" height="26" as="geometry" />
        </mxCell>
        <mxCell id="362QzIRRDV4tzAWA7127-26" value="+ content: Text" style="text;strokeColor=none;fillColor=none;align=left;verticalAlign=top;spacingLeft=4;spacingRight=4;overflow=hidden;rotatable=0;points=[[0,0.5],[1,0.5]];portConstraint=eastwest;whiteSpace=wrap;html=1;fontSize=16;" vertex="1" parent="362QzIRRDV4tzAWA7127-24">
          <mxGeometry y="78" width="363" height="26" as="geometry" />
        </mxCell>
        <mxCell id="362QzIRRDV4tzAWA7127-27" value="+ image: varchar(255)" style="text;strokeColor=none;fillColor=none;align=left;verticalAlign=top;spacingLeft=4;spacingRight=4;overflow=hidden;rotatable=0;points=[[0,0.5],[1,0.5]];portConstraint=eastwest;whiteSpace=wrap;html=1;fontSize=16;" vertex="1" parent="362QzIRRDV4tzAWA7127-24">
          <mxGeometry y="104" width="363" height="26" as="geometry" />
        </mxCell>
        <mxCell id="362QzIRRDV4tzAWA7127-34" value="+ total_like: int" style="text;strokeColor=none;fillColor=none;align=left;verticalAlign=top;spacingLeft=4;spacingRight=4;overflow=hidden;rotatable=0;points=[[0,0.5],[1,0.5]];portConstraint=eastwest;whiteSpace=wrap;html=1;fontSize=16;" vertex="1" parent="362QzIRRDV4tzAWA7127-24">
          <mxGeometry y="130" width="363" height="26" as="geometry" />
        </mxCell>
        <mxCell id="362QzIRRDV4tzAWA7127-32" value="+ created_at: date current_timestamp&amp;nbsp;" style="text;strokeColor=none;fillColor=none;align=left;verticalAlign=top;spacingLeft=4;spacingRight=4;overflow=hidden;rotatable=0;points=[[0,0.5],[1,0.5]];portConstraint=eastwest;whiteSpace=wrap;html=1;fontSize=16;" vertex="1" parent="362QzIRRDV4tzAWA7127-24">
          <mxGeometry y="156" width="363" height="26" as="geometry" />
        </mxCell>
        <mxCell id="362QzIRRDV4tzAWA7127-33" value="+ updated_at: date current_timestamp&amp;nbsp;" style="text;strokeColor=none;fillColor=none;align=left;verticalAlign=top;spacingLeft=4;spacingRight=4;overflow=hidden;rotatable=0;points=[[0,0.5],[1,0.5]];portConstraint=eastwest;whiteSpace=wrap;html=1;fontSize=16;" vertex="1" parent="362QzIRRDV4tzAWA7127-24">
          <mxGeometry y="182" width="363" height="26" as="geometry" />
        </mxCell>
        <mxCell id="362QzIRRDV4tzAWA7127-35" style="edgeStyle=orthogonalEdgeStyle;rounded=0;orthogonalLoop=1;jettySize=auto;html=1;entryX=0;entryY=0.5;entryDx=0;entryDy=0;fontSize=12;startSize=8;endSize=8;" edge="1" parent="1" source="362QzIRRDV4tzAWA7127-21" target="362QzIRRDV4tzAWA7127-28">
          <mxGeometry relative="1" as="geometry" />
        </mxCell>
      </root>
    </mxGraphModel>
  </diagram>
</mxfile>
